<svg width="600" height="30" xmlns="http://www.w3.org/2000/svg">
  <rect width="5" height="30" x="0" y="0" fill="red" />
  <rect width="5" height="30" x="5" y="0" fill="lightgrey" />
  <rect width="5" height="30" x="10" y="0" fill="red" />
  <rect width="5" height="30" x="15" y="0" fill="lightgrey" />
  <rect width="30" height="30" x="20" y="0" fill="lightgrey" />
  <rect width="5" height="30" x="50" y="0" fill="red" />
  <rect width="5" height="30" x="55" y="0" fill="lightgrey" />
  <rect width="5" height="30" x="60" y="0" fill="red" />
  <rect width="5" height="30" x="65" y="0" fill="lightgrey" />
  <rect width="30" height="30" x="70" y="0" fill="lightgrey" />
  <rect width="5" height="30" x="100" y="0" fill="red" />
  <rect width="5" height="30" x="105" y="0" fill="lightgrey" />
  <rect width="5" height="30" x="110" y="0" fill="red" />
  <rect width="5" height="30" x="115" y="0" fill="lightgrey" />
  <rect width="30" height="30" x="120" y="0" fill="lightgrey" />
  <rect width="5" height="30" x="150" y="0" fill="red" />
  <rect width="5" height="30" x="155" y="0" fill="lightgrey" />
  <rect width="5" height="30" x="160" y="0" fill="red" />
  <rect width="5" height="30" x="165" y="0" fill="lightgrey" />
  <rect width="30" height="30" x="170" y="0" fill="lightgrey" />
</svg>